<svg version="1.1" xmlns="http://www.w3.org/2000/svg" xmlns:xlink="http://www.w3.org/1999/xlink" width="467" height="1251"><defs/><g><text fill="#eeeeee" stroke="none" font-family="Arial" font-size="24px" font-style="normal" font-weight="normal" text-decoration="none" x="0" y="0">UNREGISTERED</text><text fill="#eeeeee" stroke="none" font-family="Arial" font-size="24px" font-style="normal" font-weight="normal" text-decoration="none" x="0" y="30">UNREGISTERED</text><text fill="#eeeeee" stroke="none" font-family="Arial" font-size="24px" font-style="normal" font-weight="normal" text-decoration="none" x="0" y="60">UNREGISTERED</text><text fill="#eeeeee" stroke="none" font-family="Arial" font-size="24px" font-style="normal" font-weight="normal" text-decoration="none" x="0" y="90">UNREGISTERED</text><text fill="#eeeeee" stroke="none" font-family="Arial" font-size="24px" font-style="normal" font-weight="normal" text-decoration="none" x="0" y="120">UNREGISTERED</text><text fill="#eeeeee" stroke="none" font-family="Arial" font-size="24px" font-style="normal" font-weight="normal" text-decoration="none" x="0" y="150">UNREGISTERED</text><text fill="#eeeeee" stroke="none" font-family="Arial" font-size="24px" font-style="normal" font-weight="normal" text-decoration="none" x="0" y="180">UNREGISTERED</text><text fill="#eeeeee" stroke="none" font-family="Arial" font-size="24px" font-style="normal" font-weight="normal" text-decoration="none" x="0" y="210">UNREGISTERED</text><text fill="#eeeeee" stroke="none" font-family="Arial" font-size="24px" font-style="normal" font-weight="normal" text-decoration="none" x="0" y="240">UNREGISTERED</text><text fill="#eeeeee" stroke="none" font-family="Arial" font-size="24px" font-style="normal" font-weight="normal" text-decoration="none" x="0" y="270">UNREGISTERED</text><text fill="#eeeeee" stroke="none" font-family="Arial" font-size="24px" font-style="normal" font-weight="normal" text-decoration="none" x="0" y="300">UNREGISTERED</text><text fill="#eeeeee" stroke="none" font-family="Arial" font-size="24px" font-style="normal" font-weight="normal" text-decoration="none" x="0" y="330">UNREGISTERED</text><text fill="#eeeeee" stroke="none" font-family="Arial" font-size="24px" font-style="normal" font-weight="normal" text-decoration="none" x="0" y="360">UNREGISTERED</text><text fill="#eeeeee" stroke="none" font-family="Arial" font-size="24px" font-style="normal" font-weight="normal" text-decoration="none" x="0" y="390">UNREGISTERED</text><text fill="#eeeeee" stroke="none" font-family="Arial" font-size="24px" font-style="normal" font-weight="normal" text-decoration="none" x="0" y="420">UNREGISTERED</text><text fill="#eeeeee" stroke="none" font-family="Arial" font-size="24px" font-style="normal" font-weight="normal" text-decoration="none" x="0" y="450">UNREGISTERED</text><text fill="#eeeeee" stroke="none" font-family="Arial" font-size="24px" font-style="normal" font-weight="normal" text-decoration="none" x="0" y="480">UNREGISTERED</text><text fill="#eeeeee" stroke="none" font-family="Arial" font-size="24px" font-style="normal" font-weight="normal" text-decoration="none" x="0" y="510">UNREGISTERED</text><text fill="#eeeeee" stroke="none" font-family="Arial" font-size="24px" font-style="normal" font-weight="normal" text-decoration="none" x="0" y="540">UNREGISTERED</text><text fill="#eeeeee" stroke="none" font-family="Arial" font-size="24px" font-style="normal" font-weight="normal" text-decoration="none" x="0" y="570">UNREGISTERED</text><text fill="#eeeeee" stroke="none" font-family="Arial" font-size="24px" font-style="normal" font-weight="normal" text-decoration="none" x="0" y="600">UNREGISTERED</text><text fill="#eeeeee" stroke="none" font-family="Arial" font-size="24px" font-style="normal" font-weight="normal" text-decoration="none" x="0" y="630">UNREGISTERED</text><text fill="#eeeeee" stroke="none" font-family="Arial" font-size="24px" font-style="normal" font-weight="normal" text-decoration="none" x="0" y="660">UNREGISTERED</text><text fill="#eeeeee" stroke="none" font-family="Arial" font-size="24px" font-style="normal" font-weight="normal" text-decoration="none" x="0" y="690">UNREGISTERED</text><text fill="#eeeeee" stroke="none" font-family="Arial" font-size="24px" font-style="normal" font-weight="normal" text-decoration="none" x="0" y="720">UNREGISTERED</text><text fill="#eeeeee" stroke="none" font-family="Arial" font-size="24px" font-style="normal" font-weight="normal" text-decoration="none" x="0" y="750">UNREGISTERED</text><text fill="#eeeeee" stroke="none" font-family="Arial" font-size="24px" font-style="normal" font-weight="normal" text-decoration="none" x="0" y="780">UNREGISTERED</text><text fill="#eeeeee" stroke="none" font-family="Arial" font-size="24px" font-style="normal" font-weight="normal" text-decoration="none" x="0" y="810">UNREGISTERED</text><text fill="#eeeeee" stroke="none" font-family="Arial" font-size="24px" font-style="normal" font-weight="normal" text-decoration="none" x="0" y="840">UNREGISTERED</text><text fill="#eeeeee" stroke="none" font-family="Arial" font-size="24px" font-style="normal" font-weight="normal" text-decoration="none" x="0" y="870">UNREGISTERED</text><text fill="#eeeeee" stroke="none" font-family="Arial" font-size="24px" font-style="normal" font-weight="normal" text-decoration="none" x="0" y="900">UNREGISTERED</text><text fill="#eeeeee" stroke="none" font-family="Arial" font-size="24px" font-style="normal" font-weight="normal" text-decoration="none" x="0" y="930">UNREGISTERED</text><text fill="#eeeeee" stroke="none" font-family="Arial" font-size="24px" font-style="normal" font-weight="normal" text-decoration="none" x="0" y="960">UNREGISTERED</text><text fill="#eeeeee" stroke="none" font-family="Arial" font-size="24px" font-style="normal" font-weight="normal" text-decoration="none" x="0" y="990">UNREGISTERED</text><text fill="#eeeeee" stroke="none" font-family="Arial" font-size="24px" font-style="normal" font-weight="normal" text-decoration="none" x="0" y="1020">UNREGISTERED</text><text fill="#eeeeee" stroke="none" font-family="Arial" font-size="24px" font-style="normal" font-weight="normal" text-decoration="none" x="0" y="1050">UNREGISTERED</text><text fill="#eeeeee" stroke="none" font-family="Arial" font-size="24px" font-style="normal" font-weight="normal" text-decoration="none" x="0" y="1080">UNREGISTERED</text><text fill="#eeeeee" stroke="none" font-family="Arial" font-size="24px" font-style="normal" font-weight="normal" text-decoration="none" x="0" y="1110">UNREGISTERED</text><text fill="#eeeeee" stroke="none" font-family="Arial" font-size="24px" font-style="normal" font-weight="normal" text-decoration="none" x="0" y="1140">UNREGISTERED</text><text fill="#eeeeee" stroke="none" font-family="Arial" font-size="24px" font-style="normal" font-weight="normal" text-decoration="none" x="0" y="1170">UNREGISTERED</text><text fill="#eeeeee" stroke="none" font-family="Arial" font-size="24px" font-style="normal" font-weight="normal" text-decoration="none" x="0" y="1200">UNREGISTERED</text><text fill="#eeeeee" stroke="none" font-family="Arial" font-size="24px" font-style="normal" font-weight="normal" text-decoration="none" x="0" y="1230">UNREGISTERED</text><text fill="#eeeeee" stroke="none" font-family="Arial" font-size="24px" font-style="normal" font-weight="normal" text-decoration="none" x="200" y="0">UNREGISTERED</text><text fill="#eeeeee" stroke="none" font-family="Arial" font-size="24px" font-style="normal" font-weight="normal" text-decoration="none" x="200" y="30">UNREGISTERED</text><text fill="#eeeeee" stroke="none" font-family="Arial" font-size="24px" font-style="normal" font-weight="normal" text-decoration="none" x="200" y="60">UNREGISTERED</text><text fill="#eeeeee" stroke="none" font-family="Arial" font-size="24px" font-style="normal" font-weight="normal" text-decoration="none" x="200" y="90">UNREGISTERED</text><text fill="#eeeeee" stroke="none" font-family="Arial" font-size="24px" font-style="normal" font-weight="normal" text-decoration="none" x="200" y="120">UNREGISTERED</text><text fill="#eeeeee" stroke="none" font-family="Arial" font-size="24px" font-style="normal" font-weight="normal" text-decoration="none" x="200" y="150">UNREGISTERED</text><text fill="#eeeeee" stroke="none" font-family="Arial" font-size="24px" font-style="normal" font-weight="normal" text-decoration="none" x="200" y="180">UNREGISTERED</text><text fill="#eeeeee" stroke="none" font-family="Arial" font-size="24px" font-style="normal" font-weight="normal" text-decoration="none" x="200" y="210">UNREGISTERED</text><text fill="#eeeeee" stroke="none" font-family="Arial" font-size="24px" font-style="normal" font-weight="normal" text-decoration="none" x="200" y="240">UNREGISTERED</text><text fill="#eeeeee" stroke="none" font-family="Arial" font-size="24px" font-style="normal" font-weight="normal" text-decoration="none" x="200" y="270">UNREGISTERED</text><text fill="#eeeeee" stroke="none" font-family="Arial" font-size="24px" font-style="normal" font-weight="normal" text-decoration="none" x="200" y="300">UNREGISTERED</text><text fill="#eeeeee" stroke="none" font-family="Arial" font-size="24px" font-style="normal" font-weight="normal" text-decoration="none" x="200" y="330">UNREGISTERED</text><text fill="#eeeeee" stroke="none" font-family="Arial" font-size="24px" font-style="normal" font-weight="normal" text-decoration="none" x="200" y="360">UNREGISTERED</text><text fill="#eeeeee" stroke="none" font-family="Arial" font-size="24px" font-style="normal" font-weight="normal" text-decoration="none" x="200" y="390">UNREGISTERED</text><text fill="#eeeeee" stroke="none" font-family="Arial" font-size="24px" font-style="normal" font-weight="normal" text-decoration="none" x="200" y="420">UNREGISTERED</text><text fill="#eeeeee" stroke="none" font-family="Arial" font-size="24px" font-style="normal" font-weight="normal" text-decoration="none" x="200" y="450">UNREGISTERED</text><text fill="#eeeeee" stroke="none" font-family="Arial" font-size="24px" font-style="normal" font-weight="normal" text-decoration="none" x="200" y="480">UNREGISTERED</text><text fill="#eeeeee" stroke="none" font-family="Arial" font-size="24px" font-style="normal" font-weight="normal" text-decoration="none" x="200" y="510">UNREGISTERED</text><text fill="#eeeeee" stroke="none" font-family="Arial" font-size="24px" font-style="normal" font-weight="normal" text-decoration="none" x="200" y="540">UNREGISTERED</text><text fill="#eeeeee" stroke="none" font-family="Arial" font-size="24px" font-style="normal" font-weight="normal" text-decoration="none" x="200" y="570">UNREGISTERED</text><text fill="#eeeeee" stroke="none" font-family="Arial" font-size="24px" font-style="normal" font-weight="normal" text-decoration="none" x="200" y="600">UNREGISTERED</text><text fill="#eeeeee" stroke="none" font-family="Arial" font-size="24px" font-style="normal" font-weight="normal" text-decoration="none" x="200" y="630">UNREGISTERED</text><text fill="#eeeeee" stroke="none" font-family="Arial" font-size="24px" font-style="normal" font-weight="normal" text-decoration="none" x="200" y="660">UNREGISTERED</text><text fill="#eeeeee" stroke="none" font-family="Arial" font-size="24px" font-style="normal" font-weight="normal" text-decoration="none" x="200" y="690">UNREGISTERED</text><text fill="#eeeeee" stroke="none" font-family="Arial" font-size="24px" font-style="normal" font-weight="normal" text-decoration="none" x="200" y="720">UNREGISTERED</text><text fill="#eeeeee" stroke="none" font-family="Arial" font-size="24px" font-style="normal" font-weight="normal" text-decoration="none" x="200" y="750">UNREGISTERED</text><text fill="#eeeeee" stroke="none" font-family="Arial" font-size="24px" font-style="normal" font-weight="normal" text-decoration="none" x="200" y="780">UNREGISTERED</text><text fill="#eeeeee" stroke="none" font-family="Arial" font-size="24px" font-style="normal" font-weight="normal" text-decoration="none" x="200" y="810">UNREGISTERED</text><text fill="#eeeeee" stroke="none" font-family="Arial" font-size="24px" font-style="normal" font-weight="normal" text-decoration="none" x="200" y="840">UNREGISTERED</text><text fill="#eeeeee" stroke="none" font-family="Arial" font-size="24px" font-style="normal" font-weight="normal" text-decoration="none" x="200" y="870">UNREGISTERED</text><text fill="#eeeeee" stroke="none" font-family="Arial" font-size="24px" font-style="normal" font-weight="normal" text-decoration="none" x="200" y="900">UNREGISTERED</text><text fill="#eeeeee" stroke="none" font-family="Arial" font-size="24px" font-style="normal" font-weight="normal" text-decoration="none" x="200" y="930">UNREGISTERED</text><text fill="#eeeeee" stroke="none" font-family="Arial" font-size="24px" font-style="normal" font-weight="normal" text-decoration="none" x="200" y="960">UNREGISTERED</text><text fill="#eeeeee" stroke="none" font-family="Arial" font-size="24px" font-style="normal" font-weight="normal" text-decoration="none" x="200" y="990">UNREGISTERED</text><text fill="#eeeeee" stroke="none" font-family="Arial" font-size="24px" font-style="normal" font-weight="normal" text-decoration="none" x="200" y="1020">UNREGISTERED</text><text fill="#eeeeee" stroke="none" font-family="Arial" font-size="24px" font-style="normal" font-weight="normal" text-decoration="none" x="200" y="1050">UNREGISTERED</text><text fill="#eeeeee" stroke="none" font-family="Arial" font-size="24px" font-style="normal" font-weight="normal" text-decoration="none" x="200" y="1080">UNREGISTERED</text><text fill="#eeeeee" stroke="none" font-family="Arial" font-size="24px" font-style="normal" font-weight="normal" text-decoration="none" x="200" y="1110">UNREGISTERED</text><text fill="#eeeeee" stroke="none" font-family="Arial" font-size="24px" font-style="normal" font-weight="normal" text-decoration="none" x="200" y="1140">UNREGISTERED</text><text fill="#eeeeee" stroke="none" font-family="Arial" font-size="24px" font-style="normal" font-weight="normal" text-decoration="none" x="200" y="1170">UNREGISTERED</text><text fill="#eeeeee" stroke="none" font-family="Arial" font-size="24px" font-style="normal" font-weight="normal" text-decoration="none" x="200" y="1200">UNREGISTERED</text><text fill="#eeeeee" stroke="none" font-family="Arial" font-size="24px" font-style="normal" font-weight="normal" text-decoration="none" x="200" y="1230">UNREGISTERED</text><text fill="#eeeeee" stroke="none" font-family="Arial" font-size="24px" font-style="normal" font-weight="normal" text-decoration="none" x="400" y="0">UNREGISTERED</text><text fill="#eeeeee" stroke="none" font-family="Arial" font-size="24px" font-style="normal" font-weight="normal" text-decoration="none" x="400" y="30">UNREGISTERED</text><text fill="#eeeeee" stroke="none" font-family="Arial" font-size="24px" font-style="normal" font-weight="normal" text-decoration="none" x="400" y="60">UNREGISTERED</text><text fill="#eeeeee" stroke="none" font-family="Arial" font-size="24px" font-style="normal" font-weight="normal" text-decoration="none" x="400" y="90">UNREGISTERED</text><text fill="#eeeeee" stroke="none" font-family="Arial" font-size="24px" font-style="normal" font-weight="normal" text-decoration="none" x="400" y="120">UNREGISTERED</text><text fill="#eeeeee" stroke="none" font-family="Arial" font-size="24px" font-style="normal" font-weight="normal" text-decoration="none" x="400" y="150">UNREGISTERED</text><text fill="#eeeeee" stroke="none" font-family="Arial" font-size="24px" font-style="normal" font-weight="normal" text-decoration="none" x="400" y="180">UNREGISTERED</text><text fill="#eeeeee" stroke="none" font-family="Arial" font-size="24px" font-style="normal" font-weight="normal" text-decoration="none" x="400" y="210">UNREGISTERED</text><text fill="#eeeeee" stroke="none" font-family="Arial" font-size="24px" font-style="normal" font-weight="normal" text-decoration="none" x="400" y="240">UNREGISTERED</text><text fill="#eeeeee" stroke="none" font-family="Arial" font-size="24px" font-style="normal" font-weight="normal" text-decoration="none" x="400" y="270">UNREGISTERED</text><text fill="#eeeeee" stroke="none" font-family="Arial" font-size="24px" font-style="normal" font-weight="normal" text-decoration="none" x="400" y="300">UNREGISTERED</text><text fill="#eeeeee" stroke="none" font-family="Arial" font-size="24px" font-style="normal" font-weight="normal" text-decoration="none" x="400" y="330">UNREGISTERED</text><text fill="#eeeeee" stroke="none" font-family="Arial" font-size="24px" font-style="normal" font-weight="normal" text-decoration="none" x="400" y="360">UNREGISTERED</text><text fill="#eeeeee" stroke="none" font-family="Arial" font-size="24px" font-style="normal" font-weight="normal" text-decoration="none" x="400" y="390">UNREGISTERED</text><text fill="#eeeeee" stroke="none" font-family="Arial" font-size="24px" font-style="normal" font-weight="normal" text-decoration="none" x="400" y="420">UNREGISTERED</text><text fill="#eeeeee" stroke="none" font-family="Arial" font-size="24px" font-style="normal" font-weight="normal" text-decoration="none" x="400" y="450">UNREGISTERED</text><text fill="#eeeeee" stroke="none" font-family="Arial" font-size="24px" font-style="normal" font-weight="normal" text-decoration="none" x="400" y="480">UNREGISTERED</text><text fill="#eeeeee" stroke="none" font-family="Arial" font-size="24px" font-style="normal" font-weight="normal" text-decoration="none" x="400" y="510">UNREGISTERED</text><text fill="#eeeeee" stroke="none" font-family="Arial" font-size="24px" font-style="normal" font-weight="normal" text-decoration="none" x="400" y="540">UNREGISTERED</text><text fill="#eeeeee" stroke="none" font-family="Arial" font-size="24px" font-style="normal" font-weight="normal" text-decoration="none" x="400" y="570">UNREGISTERED</text><text fill="#eeeeee" stroke="none" font-family="Arial" font-size="24px" font-style="normal" font-weight="normal" text-decoration="none" x="400" y="600">UNREGISTERED</text><text fill="#eeeeee" stroke="none" font-family="Arial" font-size="24px" font-style="normal" font-weight="normal" text-decoration="none" x="400" y="630">UNREGISTERED</text><text fill="#eeeeee" stroke="none" font-family="Arial" font-size="24px" font-style="normal" font-weight="normal" text-decoration="none" x="400" y="660">UNREGISTERED</text><text fill="#eeeeee" stroke="none" font-family="Arial" font-size="24px" font-style="normal" font-weight="normal" text-decoration="none" x="400" y="690">UNREGISTERED</text><text fill="#eeeeee" stroke="none" font-family="Arial" font-size="24px" font-style="normal" font-weight="normal" text-decoration="none" x="400" y="720">UNREGISTERED</text><text fill="#eeeeee" stroke="none" font-family="Arial" font-size="24px" font-style="normal" font-weight="normal" text-decoration="none" x="400" y="750">UNREGISTERED</text><text fill="#eeeeee" stroke="none" font-family="Arial" font-size="24px" font-style="normal" font-weight="normal" text-decoration="none" x="400" y="780">UNREGISTERED</text><text fill="#eeeeee" stroke="none" font-family="Arial" font-size="24px" font-style="normal" font-weight="normal" text-decoration="none" x="400" y="810">UNREGISTERED</text><text fill="#eeeeee" stroke="none" font-family="Arial" font-size="24px" font-style="normal" font-weight="normal" text-decoration="none" x="400" y="840">UNREGISTERED</text><text fill="#eeeeee" stroke="none" font-family="Arial" font-size="24px" font-style="normal" font-weight="normal" text-decoration="none" x="400" y="870">UNREGISTERED</text><text fill="#eeeeee" stroke="none" font-family="Arial" font-size="24px" font-style="normal" font-weight="normal" text-decoration="none" x="400" y="900">UNREGISTERED</text><text fill="#eeeeee" stroke="none" font-family="Arial" font-size="24px" font-style="normal" font-weight="normal" text-decoration="none" x="400" y="930">UNREGISTERED</text><text fill="#eeeeee" stroke="none" font-family="Arial" font-size="24px" font-style="normal" font-weight="normal" text-decoration="none" x="400" y="960">UNREGISTERED</text><text fill="#eeeeee" stroke="none" font-family="Arial" font-size="24px" font-style="normal" font-weight="normal" text-decoration="none" x="400" y="990">UNREGISTERED</text><text fill="#eeeeee" stroke="none" font-family="Arial" font-size="24px" font-style="normal" font-weight="normal" text-decoration="none" x="400" y="1020">UNREGISTERED</text><text fill="#eeeeee" stroke="none" font-family="Arial" font-size="24px" font-style="normal" font-weight="normal" text-decoration="none" x="400" y="1050">UNREGISTERED</text><text fill="#eeeeee" stroke="none" font-family="Arial" font-size="24px" font-style="normal" font-weight="normal" text-decoration="none" x="400" y="1080">UNREGISTERED</text><text fill="#eeeeee" stroke="none" font-family="Arial" font-size="24px" font-style="normal" font-weight="normal" text-decoration="none" x="400" y="1110">UNREGISTERED</text><text fill="#eeeeee" stroke="none" font-family="Arial" font-size="24px" font-style="normal" font-weight="normal" text-decoration="none" x="400" y="1140">UNREGISTERED</text><text fill="#eeeeee" stroke="none" font-family="Arial" font-size="24px" font-style="normal" font-weight="normal" text-decoration="none" x="400" y="1170">UNREGISTERED</text><text fill="#eeeeee" stroke="none" font-family="Arial" font-size="24px" font-style="normal" font-weight="normal" text-decoration="none" x="400" y="1200">UNREGISTERED</text><text fill="#eeeeee" stroke="none" font-family="Arial" font-size="24px" font-style="normal" font-weight="normal" text-decoration="none" x="400" y="1230">UNREGISTERED</text><g transform="translate(-142,-94) scale(1,1)"><rect fill="#ffffff" stroke="none" x="256" y="1096" width="343" height="239"/></g><g transform="translate(-142,-94) scale(1,1)"><path fill="none" stroke="#000000" d="M 256 1096 L 599 1096 L 599 1335 L 256 1335 L 256 1096 Z Z" stroke-miterlimit="10"/></g><g transform="translate(-142,-94) scale(1,1)"><rect fill="#ffffff" stroke="none" x="152" y="144" width="431" height="223"/></g><g transform="translate(-142,-94) scale(1,1)"><path fill="none" stroke="#000000" d="M 152 144 L 583 144 L 583 367 L 152 367 L 152 144 Z Z" stroke-miterlimit="10"/></g><g transform="translate(-142,-94) scale(1,1)"><rect fill="#ffffff" stroke="none" x="192" y="232" width="152" height="72"/></g><g transform="translate(-142,-94) scale(1,1)"><path fill="none" stroke="#000000" d="M 192 232 L 344 232 L 344 304 L 192 304 L 192 232 Z Z" stroke-miterlimit="10"/></g><g transform="translate(-142,-94) scale(1,1)"><g><path fill="none" stroke="none"/><text fill="#000000" stroke="none" font-family="Arial" font-size="13px" font-style="normal" font-weight="normal" text-decoration="none" x="206.935546875" y="268">Criação de colunas e</text><text fill="#000000" stroke="none" font-family="Arial" font-size="13px" font-style="normal" font-weight="normal" text-decoration="none" x="247.0400390625" y="281">tabelas</text></g></g><g transform="translate(-142,-94) scale(1,1)"><g><path fill="none" stroke="none"/><text fill="#000000" stroke="none" font-family="Arial" font-size="13px" font-style="normal" font-weight="normal" text-decoration="none" x="173" y="178">Banco de</text><text fill="#000000" stroke="none" font-family="Arial" font-size="13px" font-style="normal" font-weight="normal" text-decoration="none" x="173" y="191">Dados(POSTGRES)</text></g></g><g transform="translate(-142,-94) scale(1,1)"><rect fill="#ffffff" stroke="none" x="152" y="556" width="431" height="223"/></g><g transform="translate(-142,-94) scale(1,1)"><path fill="none" stroke="#000000" d="M 152 556 L 583 556 L 583 779 L 152 779 L 152 556 Z Z" stroke-miterlimit="10"/></g><g transform="translate(-142,-94) scale(1,1)"><rect fill="#ffffff" stroke="none" x="408" y="696" width="88" height="44"/></g><g transform="translate(-142,-94) scale(1,1)"><path fill="none" stroke="#000000" d="M 408 696 L 496 696 L 496 740 L 408 740 L 408 696 Z Z" stroke-miterlimit="10"/></g><g transform="translate(-142,-94) scale(1,1)"><g><path fill="none" stroke="none"/><text fill="#000000" stroke="none" font-family="Arial" font-size="13px" font-style="normal" font-weight="normal" text-decoration="none" x="420.57275390625" y="724">Controllers</text></g></g><g transform="translate(-142,-94) scale(1,1)"><g><path fill="none" stroke="none"/><text fill="#000000" stroke="none" font-family="Arial" font-size="13px" font-style="normal" font-weight="normal" text-decoration="none" x="165" y="754">Back-end(Ruby on</text><text fill="#000000" stroke="none" font-family="Arial" font-size="13px" font-style="normal" font-weight="normal" text-decoration="none" x="165" y="767">Rails)</text></g></g><g transform="translate(-142,-94) scale(1,1)"><rect fill="#ffffff" stroke="none" x="408" y="600" width="88" height="48"/></g><g transform="translate(-142,-94) scale(1,1)"><path fill="none" stroke="#000000" d="M 408 600 L 496 600 L 496 648 L 408 648 L 408 600 Z Z" stroke-miterlimit="10"/></g><g transform="translate(-142,-94) scale(1,1)"><g><path fill="none" stroke="none"/><text fill="#000000" stroke="none" font-family="Arial" font-size="13px" font-style="normal" font-weight="normal" text-decoration="none" x="431.04638671875" y="630">Models</text></g></g><g transform="translate(-142,-94) scale(1,1)"><rect fill="#ffffff" stroke="none" x="216" y="600" width="88" height="44"/></g><g transform="translate(-142,-94) scale(1,1)"><path fill="none" stroke="#000000" d="M 216 600 L 304 600 L 304 644 L 216 644 L 216 600 Z Z" stroke-miterlimit="10"/></g><g transform="translate(-142,-94) scale(1,1)"><g><path fill="none" stroke="none"/><text fill="#000000" stroke="none" font-family="Arial" font-size="13px" font-style="normal" font-weight="normal" text-decoration="none" x="230.016845703125" y="628">Migrations</text></g></g><g transform="translate(-142,-94) scale(1,1)"><rect fill="#ffffff" stroke="none" x="384" y="232" width="152" height="72"/></g><g transform="translate(-142,-94) scale(1,1)"><path fill="none" stroke="#000000" d="M 384 232 L 536 232 L 536 304 L 384 304 L 384 232 Z Z" stroke-miterlimit="10"/></g><g transform="translate(-142,-94) scale(1,1)"><g><path fill="none" stroke="none"/><text fill="#000000" stroke="none" font-family="Arial" font-size="13px" font-style="normal" font-weight="normal" text-decoration="none" x="414.1064453125" y="255">Manipulação de</text><text fill="#000000" stroke="none" font-family="Arial" font-size="13px" font-style="normal" font-weight="normal" text-decoration="none" x="412.31005859375" y="268">Dados(Inserção,</text><text fill="#000000" stroke="none" font-family="Arial" font-size="13px" font-style="normal" font-weight="normal" text-decoration="none" x="389.544189453125" y="281">Remoção, Atualização e</text><text fill="#000000" stroke="none" font-family="Arial" font-size="13px" font-style="normal" font-weight="normal" text-decoration="none" x="421.460205078125" y="294">Visualização)</text></g></g><g transform="translate(-142,-94) scale(1,1)"><path fill="none" stroke="#000000" d="M 264 304 L 265 600" stroke-miterlimit="10"/></g><g transform="translate(-142,-94) scale(1,1)"><path fill="#000000" stroke="none" d="M 268.24382689875773 314.14839559996454 L 264 304 L 259.8248394313948 314.17683812519215"/></g><g transform="translate(-142,-94) scale(1,1)"><path fill="none" stroke="#000000" d="M 268.24382689875773 314.14839559996454 L 264 304 L 259.8248394313948 314.17683812519215 L 268.24382689875773 314.14839559996454" stroke-miterlimit="10"/></g><g transform="translate(-142,-94) scale(1,1)"><path fill="none" stroke="#000000" d="M 448 696 L 448 648" stroke-miterlimit="10"/></g><g transform="translate(-142,-94) scale(1,1)"><path fill="#000000" stroke="none" d="M 452.209517756016 658.1626748576241 L 448 648 L 443.790482243984 658.1626748576241"/></g><g transform="translate(-142,-94) scale(1,1)"><path fill="none" stroke="#000000" d="M 452.209517756016 658.1626748576241 L 448 648 L 443.790482243984 658.1626748576241 L 452.209517756016 658.1626748576241" stroke-miterlimit="10"/></g><g transform="translate(-142,-94) scale(1,1)"><path fill="none" stroke="#000000" d="M 456 600 L 456 304" stroke-miterlimit="10"/></g><g transform="translate(-142,-94) scale(1,1)"><path fill="#000000" stroke="none" d="M 460.209517756016 314.16267485762415 L 456 304 L 451.790482243984 314.16267485762415"/></g><g transform="translate(-142,-94) scale(1,1)"><path fill="none" stroke="#000000" d="M 460.209517756016 314.16267485762415 L 456 304 L 451.790482243984 314.16267485762415 L 460.209517756016 314.16267485762415" stroke-miterlimit="10"/></g><g transform="translate(-142,-94) scale(1,1)"><rect fill="#ffffff" stroke="none" x="368" y="888" width="168" height="102"/></g><g transform="translate(-142,-94) scale(1,1)"><path fill="none" stroke="#000000" d="M 368 888 L 536 888 L 536 990 L 368 990 L 368 888 Z Z" stroke-miterlimit="10"/></g><g transform="translate(-142,-94) scale(1,1)"><g><path fill="none" stroke="none"/><text fill="#000000" stroke="none" font-family="Arial" font-size="13px" font-style="normal" font-weight="normal" text-decoration="none" x="381.563232421875" y="926">JSON(JavaScript Object</text><text fill="#000000" stroke="none" font-family="Arial" font-size="13px" font-style="normal" font-weight="normal" text-decoration="none" x="376.48828125" y="939">Notation, formato utilizado</text><text fill="#000000" stroke="none" font-family="Arial" font-size="13px" font-style="normal" font-weight="normal" text-decoration="none" x="398.885986328125" y="952">para comunicação</text><text fill="#000000" stroke="none" font-family="Arial" font-size="13px" font-style="normal" font-weight="normal" text-decoration="none" x="405.763671875" y="965">cliente-servidor)</text></g></g><g transform="translate(-142,-94) scale(1,1)"><path fill="none" stroke="#000000" d="M 448 888 L 448 744" stroke-miterlimit="10"/></g><g transform="translate(-142,-94) scale(1,1)"><path fill="#000000" stroke="none" d="M 452.209517756016 754.1626748576241 L 448 744 L 443.790482243984 754.1626748576241"/></g><g transform="translate(-142,-94) scale(1,1)"><path fill="none" stroke="#000000" d="M 452.209517756016 754.1626748576241 L 448 744 L 443.790482243984 754.1626748576241 L 452.209517756016 754.1626748576241" stroke-miterlimit="10"/></g><g transform="translate(-142,-94) scale(1,1)"><rect fill="#ffffff" stroke="none" x="480" y="1136" width="88" height="44"/></g><g transform="translate(-142,-94) scale(1,1)"><path fill="none" stroke="#000000" d="M 480 1136 L 568 1136 L 568 1180 L 480 1180 L 480 1136 Z Z" stroke-miterlimit="10"/></g><g transform="translate(-142,-94) scale(1,1)"><g><path fill="none" stroke="none"/><text fill="#000000" stroke="none" font-family="Arial" font-size="13px" font-style="normal" font-weight="normal" text-decoration="none" x="499.075927734375" y="1164">Services</text></g></g><g transform="translate(-142,-94) scale(1,1)"><rect fill="#ffffff" stroke="none" x="296" y="1271" width="88" height="44"/></g><g transform="translate(-142,-94) scale(1,1)"><path fill="none" stroke="#000000" d="M 296 1271 L 384 1271 L 384 1315 L 296 1315 L 296 1271 Z Z" stroke-miterlimit="10"/></g><g transform="translate(-142,-94) scale(1,1)"><g><path fill="none" stroke="none"/><text fill="#000000" stroke="none" font-family="Arial" font-size="13px" font-style="normal" font-weight="normal" text-decoration="none" x="321.569580078125" y="1299">Pages</text></g></g><g transform="translate(-142,-94) scale(1,1)"><rect fill="#ffffff" stroke="none" x="296" y="1136" width="88" height="44"/></g><g transform="translate(-142,-94) scale(1,1)"><path fill="none" stroke="#000000" d="M 296 1136 L 384 1136 L 384 1180 L 296 1180 L 296 1136 Z Z" stroke-miterlimit="10"/></g><g transform="translate(-142,-94) scale(1,1)"><g><path fill="none" stroke="none"/><text fill="#000000" stroke="none" font-family="Arial" font-size="13px" font-style="normal" font-weight="normal" text-decoration="none" x="321.575927734375" y="1164">Hooks</text></g></g><g transform="translate(-142,-94) scale(1,1)"><rect fill="#ffffff" stroke="none" x="480" y="1272" width="88" height="44"/></g><g transform="translate(-142,-94) scale(1,1)"><path fill="none" stroke="#000000" d="M 480 1272 L 568 1272 L 568 1316 L 480 1316 L 480 1272 Z Z" stroke-miterlimit="10"/></g><g transform="translate(-142,-94) scale(1,1)"><g><path fill="none" stroke="none"/><text fill="#000000" stroke="none" font-family="Arial" font-size="13px" font-style="normal" font-weight="normal" text-decoration="none" x="487.1455078125" y="1300">Components</text></g></g><g transform="translate(-142,-94) scale(1,1)"><path fill="none" stroke="#000000" d="M 480 1288 L 384 1288" stroke-miterlimit="10"/></g><g transform="translate(-142,-94) scale(1,1)"><path fill="#000000" stroke="none" d="M 394.16267485762415 1283.7904822439841 L 384 1288 L 394.16267485762415 1292.2095177560159"/></g><g transform="translate(-142,-94) scale(1,1)"><path fill="none" stroke="#000000" d="M 394.16267485762415 1283.7904822439841 L 384 1288 L 394.16267485762415 1292.2095177560159 L 394.16267485762415 1283.7904822439841" stroke-miterlimit="10"/></g><g transform="translate(-142,-94) scale(1,1)"><path fill="none" stroke="#000000" d="M 336 1272 L 337 1184" stroke-miterlimit="10"/></g><g transform="translate(-142,-94) scale(1,1)"><path fill="#000000" stroke="none" d="M 341.09376850425366 1194.2098510975225 L 337 1184 L 332.6752765240026 1194.1141864159288"/></g><g transform="translate(-142,-94) scale(1,1)"><path fill="none" stroke="#000000" d="M 341.09376850425366 1194.2098510975225 L 337 1184 L 332.6752765240026 1194.1141864159288 L 341.09376850425366 1194.2098510975225" stroke-miterlimit="10"/></g><g transform="translate(-142,-94) scale(1,1)"><path fill="none" stroke="#000000" d="M 520 1184 L 521 1270" stroke-miterlimit="10"/></g><g transform="translate(-142,-94) scale(1,1)"><path fill="#000000" stroke="none" d="M 516.6726041459633 1259.8869566834476 L 521 1270 L 525.0910705542997 1259.7890675391645"/></g><g transform="translate(-142,-94) scale(1,1)"><path fill="none" stroke="#000000" d="M 516.6726041459633 1259.8869566834476 L 521 1270 L 525.0910705542997 1259.7890675391645 L 516.6726041459633 1259.8869566834476" stroke-miterlimit="10"/></g><g transform="translate(-142,-94) scale(1,1)"><path fill="#000000" stroke="none" d="M 524.3273958540367 1194.1130433165524 L 520 1184 L 515.9089294457003 1194.2109324608355"/></g><g transform="translate(-142,-94) scale(1,1)"><path fill="none" stroke="#000000" d="M 524.3273958540367 1194.1130433165524 L 520 1184 L 515.9089294457003 1194.2109324608355 L 524.3273958540367 1194.1130433165524" stroke-miterlimit="10"/></g><g transform="translate(-142,-94) scale(1,1)"><path fill="none" stroke="#000000" d="M 384 1152 L 480 1153" stroke-miterlimit="10"/></g><g transform="translate(-142,-94) scale(1,1)"><path fill="#000000" stroke="none" d="M 469.79402969339105 1157.103433940082 L 480 1153 L 469.8817232224253 1148.6848551527912"/></g><g transform="translate(-142,-94) scale(1,1)"><path fill="none" stroke="#000000" d="M 469.79402969339105 1157.103433940082 L 480 1153 L 469.8817232224253 1148.6848551527912 L 469.79402969339105 1157.103433940082" stroke-miterlimit="10"/></g><g transform="translate(-142,-94) scale(1,1)"><path fill="none" stroke="#000000" d="M 456 992 L 520 1134" stroke-miterlimit="10"/></g><g transform="translate(-142,-94) scale(1,1)"><path fill="#000000" stroke="none" d="M 511.9864342238839 1126.4645661338009 L 520 1134 L 519.6619096841961 1123.0051969122517"/></g><g transform="translate(-142,-94) scale(1,1)"><path fill="none" stroke="#000000" d="M 511.9864342238839 1126.4645661338009 L 520 1134 L 519.6619096841961 1123.0051969122517 L 511.9864342238839 1126.4645661338009" stroke-miterlimit="10"/></g><g transform="translate(-142,-94) scale(1,1)"><path fill="#000000" stroke="none" d="M 464.0135657761161 999.5354338661991 L 456 992 L 456.3380903158039 1002.9948030877483"/></g><g transform="translate(-142,-94) scale(1,1)"><path fill="none" stroke="#000000" d="M 464.0135657761161 999.5354338661991 L 456 992 L 456.3380903158039 1002.9948030877483 L 464.0135657761161 999.5354338661991" stroke-miterlimit="10"/></g><g transform="translate(-142,-94) scale(1,1)"><g><path fill="none" stroke="none"/><text fill="#000000" stroke="none" font-family="Arial" font-size="13px" font-style="normal" font-weight="normal" text-decoration="none" x="261" y="1122">Front-end(React.js)</text></g></g><g transform="translate(-142,-94) scale(1,1)"><g><path fill="none" stroke="none"/><text fill="#000000" stroke="none" font-family="Arial" font-size="16px" font-style="normal" font-weight="normal" text-decoration="none" x="213" y="125">GErenciador de Chamados de TI - GECTI</text></g></g></g></svg>